<svg xmlns="http://www.w3.org/2000/svg" viewBox="0 0 32 32" fill="none">
  <!-- Background circle -->
  <circle cx="16" cy="16" r="15" fill="#2563eb" stroke="#1d4ed8" stroke-width="2"/>
  
  <!-- QR code pattern -->
  <g fill="white">
    <!-- Corner squares -->
    <rect x="6" y="6" width="5" height="5" rx="0.5"/>
    <rect x="21" y="6" width="5" height="5" rx="0.5"/>
    <rect x="6" y="21" width="5" height="5" rx="0.5"/>
    
    <!-- Inner squares -->
    <rect x="7.5" y="7.5" width="2" height="2"/>
    <rect x="22.5" y="7.5" width="2" height="2"/>
    <rect x="7.5" y="22.5" width="2" height="2"/>
    
    <!-- Pattern dots -->
    <rect x="13" y="7" width="1.5" height="1.5" rx="0.2"/>
    <rect x="15.5" y="7" width="1.5" height="1.5" rx="0.2"/>
    <rect x="18" y="7" width="1.5" height="1.5" rx="0.2"/>
    
    <rect x="13" y="9.5" width="1.5" height="1.5" rx="0.2"/>
    <rect x="18" y="9.5" width="1.5" height="1.5" rx="0.2"/>
    
    <rect x="13" y="12" width="1.5" height="1.5" rx="0.2"/>
    <rect x="15.5" y="12" width="1.5" height="1.5" rx="0.2"/>
    <rect x="18" y="12" width="1.5" height="1.5" rx="0.2"/>
    <rect x="21" y="12" width="1.5" height="1.5" rx="0.2"/>
    <rect x="23.5" y="12" width="1.5" height="1.5" rx="0.2"/>
    
    <rect x="7" y="14.5" width="1.5" height="1.5" rx="0.2"/>
    <rect x="13" y="14.5" width="1.5" height="1.5" rx="0.2"/>
    <rect x="18" y="14.5" width="1.5" height="1.5" rx="0.2"/>
    <rect x="21" y="14.5" width="1.5" height="1.5" rx="0.2"/>
    
    <rect x="9.5" y="17" width="1.5" height="1.5" rx="0.2"/>
    <rect x="13" y="17" width="1.5" height="1.5" rx="0.2"/>
    <rect x="15.5" y="17" width="1.5" height="1.5" rx="0.2"/>
    <rect x="18" y="17" width="1.5" height="1.5" rx="0.2"/>
    <rect x="23.5" y="17" width="1.5" height="1.5" rx="0.2"/>
    
    <rect x="13" y="19.5" width="1.5" height="1.5" rx="0.2"/>
    <rect x="18" y="19.5" width="1.5" height="1.5" rx="0.2"/>
    <rect x="21" y="19.5" width="1.5" height="1.5" rx="0.2"/>
    
    <rect x="13" y="22" width="1.5" height="1.5" rx="0.2"/>
    <rect x="15.5" y="22" width="1.5" height="1.5" rx="0.2"/>
    <rect x="18" y="22" width="1.5" height="1.5" rx="0.2"/>
    <rect x="21" y="22" width="1.5" height="1.5" rx="0.2"/>
    
    <rect x="13" y="24.5" width="1.5" height="1.5" rx="0.2"/>
    <rect x="18" y="24.5" width="1.5" height="1.5" rx="0.2"/>
    <rect x="23.5" y="24.5" width="1.5" height="1.5" rx="0.2"/>
  </g>
</svg> 